<svg data-qa="icon" data-role="icon-skull" width="8" height="16" viewBox="0 0 13 24" fill="none" xmlns="http://www.w3.org/2000/svg"><path d="M11.804 6.475c-.672 1.686-3.07.842-2.453-.865.626-1.725 3.099-1.056 2.519.685a3.38 3.38 0 0 1-.066.18ZM6.77 6.47c.978 1.527-1.174 2.878-2.202 1.383a3.436 3.436 0 0 1-.104-.161c-.95-1.572 1.314-2.769 2.305-1.223ZM6.913 11.29c.772 1.643-1.54 2.703-2.364 1.086a3.371 3.371 0 0 1-.082-.175c-.733-1.683 1.666-2.572 2.446-.911ZM2.708 15.587c-.573-1.743 1.9-2.404 2.52-.677.613 1.708-1.786 2.545-2.454.858a3.413 3.413 0 0 1-.066-.18ZM3.186 18.762c.095 1.812-2.443 1.924-2.598.116a3.445 3.445 0 0 1-.011-.193c-.048-1.836 2.513-1.756 2.61.077ZM8.235 2.406c.376 1.775-2.085 2.403-2.518.642C5.278 1.266 7.704.45 8.19 2.22a3.042 3.042 0 0 1 .045.186ZM12.307 10.875c-1.14 1.412-3.18-.102-2.088-1.55 1.107-1.464 3.271-.098 2.205 1.396a3.163 3.163 0 0 1-.117.154ZM11.33 15.267c-1.425 1.121-3.078-.806-1.691-1.976 1.404-1.182 3.212.632 1.84 1.852a3.157 3.157 0 0 1-.149.124ZM9.572 19.285c-1.698.638-2.69-1.702-1.013-2.395 1.695-.702 2.869 1.573 1.193 2.322a2.805 2.805 0 0 1-.18.073ZM5.85 20.375c1.768-.494 2.661 1.905.908 2.446a2.932 2.932 0 0 1-.186.052c-1.763.43-2.469-2.01-.721-2.498Z" fill="#fff"/><path d="M7.575 6.684c-.08-.22.01-.471.22-.574a.385.385 0 0 1 .542.208c.618 1.748 2.404 9.03-6.902 17.186a.427.427 0 0 1-.603-.04.436.436 0 0 1 .05-.606c8.937-7.831 7.3-14.511 6.693-16.174Z" fill="#fff"/></svg>