<svg data-qa="icon" data-role="icon-skull" width="8" height="16" viewBox="0 0 13 24" fill="none" xmlns="http://www.w3.org/2000/svg"><path d="M1.196 6.475c.672 1.686 3.07.842 2.453-.865C3.023 3.885.55 4.554 1.13 6.295a3.019 3.019 0 0 0 .066.18ZM6.23 6.47c-.978 1.527 1.174 2.878 2.202 1.383a3.436 3.436 0 0 0 .104-.161c.95-1.572-1.314-2.769-2.305-1.223ZM6.087 11.29c-.772 1.644 1.54 2.704 2.364 1.087a3.496 3.496 0 0 0 .082-.175c.733-1.683-1.666-2.573-2.446-.911ZM10.292 15.587c.573-1.743-1.9-2.404-2.52-.677-.613 1.708 1.786 2.545 2.454.858a3.637 3.637 0 0 0 .066-.18ZM9.814 18.762c-.095 1.812 2.443 1.924 2.598.116a3.415 3.415 0 0 0 .011-.193c.048-1.836-2.513-1.756-2.61.077ZM4.765 2.406C4.39 4.181 6.85 4.81 7.283 3.048 7.722 1.266 5.296.45 4.81 2.22a3.042 3.042 0 0 0-.045.186ZM.693 10.875c1.14 1.412 3.18-.102 2.088-1.55C1.674 7.861-.49 9.227.576 10.721a2.886 2.886 0 0 0 .117.154ZM1.67 15.267c1.425 1.121 3.078-.806 1.691-1.976-1.404-1.182-3.212.632-1.84 1.852a3.066 3.066 0 0 0 .149.124ZM3.428 19.285c1.698.638 2.69-1.702 1.013-2.395-1.695-.702-2.869 1.573-1.193 2.322a2.805 2.805 0 0 0 .18.073ZM7.15 20.375c-1.768-.494-2.661 1.905-.908 2.446a2.932 2.932 0 0 0 .186.052c1.763.43 2.469-2.01.721-2.498Z" fill="#fff"/><path d="M5.425 6.684a.462.462 0 0 0-.22-.574.385.385 0 0 0-.542.208c-.618 1.748-2.404 9.03 6.902 17.186.176.155.45.138.603-.04a.435.435 0 0 0-.05-.606C3.18 15.027 4.817 8.347 5.424 6.684Z" fill="#fff"/></svg>