<svg width="64" height="46" fill="none" xmlns="http://www.w3.org/2000/svg"><path d="m62.584 6.81.08.524c-.773-2.744-2.861-4.862-5.515-5.632l-.056-.014C52.104.334 32.027.334 32.027.334S12 .307 6.96 1.688a8.117 8.117 0 0 0-5.555 5.59l-.013.056c-1.864 9.736-1.877 21.434.083 31.858l-.083-.528c.773 2.744 2.861 4.861 5.515 5.632l.056.014c4.984 1.357 25.066 1.357 25.066 1.357s20.024 0 25.067-1.358a8.116 8.116 0 0 0 5.557-5.589l.014-.056C63.515 34.136 64 28.925 64 23.603c0-.195 0-.392-.003-.59.003-.18.003-.397.003-.613 0-5.325-.485-10.536-1.416-15.59Z" fill="#000" fill-opacity=".7"/><path d="M25.621 13.288v19.448l16.71-9.71-16.71-9.738Z" fill="#fff"/></svg>